<svg width="20" height="20" viewBox="0 0 20 20" fill="none" xmlns="http://www.w3.org/2000/svg">
<path fill-rule="evenodd" clip-rule="evenodd" d="M10.8333 0.833496C5.31052 0.833496 0.833252 5.31077 0.833252 10.8335C0.833252 16.3562 5.31052 20.8335 10.8333 20.8335C16.356 20.8335 20.8333 16.3562 20.8333 10.8335C20.8333 5.31077 16.356 0.833496 10.8333 0.833496ZM14.2033 8.74895C14.3689 8.57749 14.4605 8.34786 14.4584 8.1095C14.4563 7.87113 14.3607 7.64312 14.1922 7.47457C14.0236 7.30602 13.7956 7.21041 13.5573 7.20834C13.3189 7.20627 13.0893 7.2979 12.9178 7.4635L10.8333 9.54804L8.74871 7.4635C8.66485 7.37667 8.56453 7.30741 8.45362 7.25977C8.34271 7.21212 8.22342 7.18704 8.10271 7.186C7.982 7.18495 7.86229 7.20795 7.75057 7.25366C7.63884 7.29937 7.53734 7.36687 7.45198 7.45223C7.36663 7.53759 7.29912 7.63909 7.25341 7.75081C7.2077 7.86253 7.1847 7.98224 7.18575 8.10295C7.1868 8.22366 7.21188 8.34295 7.25952 8.45386C7.30717 8.56478 7.37642 8.66509 7.46325 8.74895L9.5478 10.8335L7.46325 12.918C7.37642 13.0019 7.30717 13.1022 7.25952 13.2131C7.21188 13.324 7.1868 13.4433 7.18575 13.564C7.1847 13.6847 7.2077 13.8045 7.25341 13.9162C7.29912 14.0279 7.36663 14.1294 7.45198 14.2148C7.53734 14.3001 7.63884 14.3676 7.75057 14.4133C7.86229 14.459 7.982 14.482 8.10271 14.481C8.22342 14.4799 8.34271 14.4549 8.45362 14.4072C8.56453 14.3596 8.66485 14.2903 8.74871 14.2035L10.8333 12.119L12.9178 14.2035C13.0893 14.3691 13.3189 14.4607 13.5573 14.4587C13.7956 14.4566 14.0236 14.361 14.1922 14.1924C14.3607 14.0239 14.4563 13.7959 14.4584 13.5575C14.4605 13.3191 14.3689 13.0895 14.2033 12.918L12.1187 10.8335L14.2033 8.74895Z" fill="#FF0000"/>
</svg>
