<svg width="287" height="196" viewBox="0 0 287 196" fill="none" xmlns="http://www.w3.org/2000/svg">
<rect x="7" y="93" width="271" height="103" rx="30" fill="#F8F7F7"/>
<path d="M27.8687 23.6351C30.8635 9.84064 43.0699 0 57.1857 0H224.651C238.383 0 250.361 9.32284 253.733 22.6339L277.036 114.634C281.837 133.591 267.509 152 247.954 152H37.212C18.0796 152 3.83582 134.332 7.89501 115.635L27.8687 23.6351Z" fill="white"/>
<ellipse cx="143" cy="72" rx="60" ry="37" fill="#2196F3"/>
<g filter="url(#filter0_d)">
<ellipse cx="143" cy="71.5" rx="54" ry="32.5" fill="white"/>
</g>
<ellipse cx="105" cy="131.5" rx="4" ry="3.5" fill="#2196F3"/>
<ellipse cx="183" cy="131.5" rx="4" ry="3.5" fill="#2196F3"/>
<ellipse cx="143" cy="131.5" rx="4" ry="3.5" fill="#2196F3"/>
<defs>
<filter id="filter0_d" x="84" y="38" width="118" height="75" filterUnits="userSpaceOnUse" color-interpolation-filters="sRGB">
<feFlood flood-opacity="0" result="BackgroundImageFix"/>
<feColorMatrix in="SourceAlpha" type="matrix" values="0 0 0 0 0 0 0 0 0 0 0 0 0 0 0 0 0 0 127 0"/>
<feOffset dy="4"/>
<feGaussianBlur stdDeviation="2.5"/>
<feColorMatrix type="matrix" values="0 0 0 0 0 0 0 0 0 0 0 0 0 0 0 0 0 0 0.25 0"/>
<feBlend mode="normal" in2="BackgroundImageFix" result="effect1_dropShadow"/>
<feBlend mode="normal" in="SourceGraphic" in2="effect1_dropShadow" result="shape"/>
</filter>
</defs>
</svg>
