<svg width="800" height="160" viewBox="0 0 800 160" fill="none" xmlns="http://www.w3.org/2000/svg">
<path fill-rule="evenodd" clip-rule="evenodd" d="M782.201 69.4646C780.733 69.3331 779.724 66.667 779.947 63.5097C780.169 60.3524 781.539 57.8996 783.007 58.0312C784.474 58.1627 785.483 60.8288 785.26 63.9861C785.038 67.1434 783.668 69.5962 782.201 69.4646V69.4646Z" fill="#2196F3"/>
<path fill-rule="evenodd" clip-rule="evenodd" d="M780.773 65.9517C780.085 66.2755 778.969 65.3403 778.281 63.8629C777.593 62.3855 777.593 60.9253 778.281 60.6014C778.969 60.2776 780.085 61.2128 780.773 62.6902C781.461 64.1677 781.461 65.6279 780.773 65.9517V65.9517Z" fill="#2196F3"/>
<path d="M782.19 67.5286C781.771 73.2155 783.75 81.3858 779.23 84.7515C776.947 86.4508 774.252 86.2166 771.815 87.3752" stroke="#2196F3" stroke-width="4" stroke-miterlimit="10" stroke-linejoin="round"/>
<path fill-rule="evenodd" clip-rule="evenodd" d="M717.073 69.5995C718.53 69.468 719.531 66.8018 719.308 63.6446C719.085 60.4873 717.724 58.0345 716.266 58.1661C714.809 58.2976 713.808 60.9637 714.031 64.121C714.254 67.2782 715.615 69.7311 717.073 69.5995V69.5995Z" fill="#2196F3"/>
<path fill-rule="evenodd" clip-rule="evenodd" d="M718.47 66.1048C719.158 66.4185 720.266 65.4587 720.944 63.961C721.622 62.4633 721.614 60.9949 720.925 60.6812C720.237 60.3675 719.13 61.3273 718.452 62.825C717.774 64.3227 717.782 65.7911 718.47 66.1048V66.1048Z" fill="#2196F3"/>
<path d="M717.048 67.6748C717.489 73.3613 715.541 81.5418 720.075 84.8896C722.363 86.5798 725.058 86.3344 727.499 87.4831" stroke="#2196F3" stroke-width="4" stroke-miterlimit="10" stroke-linejoin="round"/>
<path fill-rule="evenodd" clip-rule="evenodd" d="M749.723 121.59L725.257 105.825V42.7651C725.257 34.0583 736.211 27 749.723 27C763.235 27 774.188 34.0583 774.188 42.7651V105.825L749.723 121.59Z" fill="#2196F3"/>
<path fill-rule="evenodd" clip-rule="evenodd" d="M776.016 103.624V119.404C776.016 128.119 764.234 135.183 749.701 135.183C735.167 135.183 723.386 128.119 723.386 119.404V103.624H776.016Z" fill="#304FFE"/>
<path fill-rule="evenodd" clip-rule="evenodd" d="M730.82 73.233C730.82 70.784 732.806 68.7988 735.254 68.7988C736.43 68.7988 737.558 69.266 738.39 70.0975C739.221 70.9291 739.689 72.0569 739.689 73.233C739.689 75.6819 737.703 77.6671 735.254 77.6671C732.806 77.6671 730.82 75.6819 730.82 73.233V73.233Z" fill="black"/>
<path fill-rule="evenodd" clip-rule="evenodd" d="M733.228 70.9962C733.228 70.3182 733.777 69.7686 734.455 69.7686C734.781 69.7686 735.093 69.8979 735.323 70.1281C735.553 70.3583 735.683 70.6706 735.683 70.9962C735.683 71.6742 735.133 72.2238 734.455 72.2238C733.777 72.2238 733.228 71.6742 733.228 70.9962V70.9962Z" fill="white"/>
<path fill-rule="evenodd" clip-rule="evenodd" d="M760.513 73.233C760.513 70.784 762.498 68.7988 764.947 68.7988C766.123 68.7988 767.251 69.266 768.082 70.0975C768.914 70.9291 769.381 72.0569 769.381 73.233C769.381 75.6819 767.396 77.6671 764.947 77.6671C762.498 77.6671 760.513 75.6819 760.513 73.233V73.233Z" fill="black"/>
<path fill-rule="evenodd" clip-rule="evenodd" d="M762.92 70.9962C762.92 70.3182 763.47 69.7686 764.148 69.7686C764.473 69.7686 764.785 69.8979 765.016 70.1281C765.246 70.3583 765.375 70.6706 765.375 70.9962C765.375 71.6742 764.826 72.2238 764.148 72.2238C763.47 72.2238 762.92 71.6742 762.92 70.9962V70.9962Z" fill="white"/>
<path fill-rule="evenodd" clip-rule="evenodd" d="M745.04 83.7086V79.2519C745.04 76.7905 747.853 74.7952 751.323 74.7952C754.793 74.7952 757.606 76.7905 757.606 79.2519V83.7086H745.04Z" stroke="black" stroke-width="2" stroke-miterlimit="10" stroke-linejoin="round"/>
<path d="M740.615 131L742 154.31L736 157" stroke="#304FFE" stroke-width="4"/>
<path d="M760.385 131L759 154.31L765 157" stroke="#304FFE" stroke-width="4"/>
<g clip-path="url(#clip0)">
<path fill-rule="evenodd" clip-rule="evenodd" d="M682.167 58.3401C680.705 58.1597 679.786 55.4614 680.114 52.3133C680.441 49.1653 681.892 46.7595 683.354 46.9399C684.817 47.1203 685.736 49.8186 685.408 52.9667C685.08 56.1148 683.629 58.5205 682.167 58.3401V58.3401Z" fill="#2196F3"/>
<path fill-rule="evenodd" clip-rule="evenodd" d="M680.857 54.7816C680.159 55.0822 679.075 54.1104 678.437 52.6108C677.798 51.1112 677.847 49.6518 678.545 49.3512C679.244 49.0505 680.328 50.0223 680.966 51.5219C681.605 53.0215 681.556 54.4809 680.857 54.7816V54.7816Z" fill="#2196F3"/>
<path d="M682.222 56.4049C681.613 62.0746 683.318 70.3064 678.688 73.5195C676.35 75.1417 673.665 74.8177 671.191 75.8944" stroke="#2196F3" stroke-width="4" stroke-miterlimit="10" stroke-linejoin="round"/>
<path fill-rule="evenodd" clip-rule="evenodd" d="M617.071 56.3028C618.532 56.2199 619.621 53.5887 619.504 50.4257C619.387 47.2628 618.108 44.7659 616.647 44.8488C615.186 44.9317 614.097 47.563 614.214 50.7259C614.331 53.8888 615.61 56.3857 617.071 56.3028V56.3028Z" fill="#2196F3"/>
<path fill-rule="evenodd" clip-rule="evenodd" d="M618.584 52.8567C619.262 53.1932 620.401 52.2708 621.128 50.7966C621.856 49.3224 621.896 47.8545 621.219 47.518C620.542 47.1816 619.403 48.1039 618.676 49.5781C617.948 51.0523 617.907 52.5202 618.584 52.8567V52.8567Z" fill="#2196F3"/>
<path d="M617.11 54.3784C617.362 60.0765 615.142 68.1874 619.561 71.6845C621.792 73.4501 624.493 73.2948 626.895 74.5243" stroke="#2196F3" stroke-width="4" stroke-miterlimit="10" stroke-linejoin="round"/>
<path fill-rule="evenodd" clip-rule="evenodd" d="M647.969 109.354L624.043 92.7816L626.146 29.7563C626.436 21.0543 637.619 14.3653 651.124 14.816C664.628 15.2666 675.34 22.6863 675.05 31.3882L672.947 94.4135L647.969 109.354Z" fill="#2196F3"/>
<path fill-rule="evenodd" clip-rule="evenodd" d="M674.847 92.2745L674.32 108.045C674.03 116.755 662.019 123.423 647.494 122.938C632.969 122.454 621.429 115 621.72 106.29L622.246 90.5192L674.847 92.2745Z" fill="#304FFE"/>
<path fill-rule="evenodd" clip-rule="evenodd" d="M630.69 60.3927C630.772 57.9452 632.822 56.0273 635.27 56.1089C636.445 56.1482 637.557 56.6527 638.36 57.5115C639.163 58.3704 639.593 59.5131 639.553 60.6885C639.472 63.136 637.421 65.0539 634.974 64.9723C632.526 64.8906 630.608 62.8403 630.69 60.3927V60.3927Z" fill="black"/>
<path fill-rule="evenodd" clip-rule="evenodd" d="M633.17 58.2374C633.193 57.5598 633.761 57.0288 634.438 57.0514C634.764 57.0623 635.072 57.202 635.294 57.4398C635.516 57.6775 635.635 57.9939 635.624 58.3193C635.602 58.997 635.034 59.5279 634.356 59.5053C633.679 59.4827 633.148 58.9151 633.17 58.2374V58.2374Z" fill="white"/>
<path fill-rule="evenodd" clip-rule="evenodd" d="M660.366 61.383C660.447 58.9354 662.498 57.0175 664.945 57.0992C666.121 57.1384 667.232 57.6429 668.036 58.5017C668.839 59.3606 669.268 60.5034 669.229 61.6787C669.147 64.1263 667.097 66.0442 664.65 65.9625C662.202 65.8808 660.284 63.8305 660.366 61.383V61.383Z" fill="black"/>
<path fill-rule="evenodd" clip-rule="evenodd" d="M662.846 59.2278C662.869 58.5502 663.437 58.0192 664.114 58.0418C664.44 58.0527 664.747 58.1923 664.97 58.4301C665.192 58.6679 665.311 58.9843 665.3 59.3097C665.278 59.9873 664.71 60.5183 664.032 60.4957C663.355 60.4731 662.824 59.9054 662.846 59.2278V59.2278Z" fill="white"/>
<path fill-rule="evenodd" clip-rule="evenodd" d="M644.552 71.3368L644.7 66.8826C644.783 64.4226 647.661 62.5222 651.129 62.6379C654.597 62.7536 657.343 64.8417 657.26 67.3017L657.112 71.7559L644.552 71.3368Z" stroke="black" stroke-width="2" stroke-miterlimit="10" stroke-linejoin="round"/>
<path d="M658.311 119.114L656.15 142.365L662.057 145.253" stroke="#304FFE" stroke-width="4"/>
<path d="M635.615 114L634 126L637 137.31L631 140" stroke="#304FFE" stroke-width="4"/>
</g>
<path fill-rule="evenodd" clip-rule="evenodd" d="M582.167 44.3401C580.705 44.1597 579.786 41.4614 580.114 38.3133C580.441 35.1653 581.892 32.7595 583.354 32.9399C584.817 33.1203 585.736 35.8186 585.408 38.9667C585.08 42.1148 583.629 44.5205 582.167 44.3401V44.3401Z" fill="#2196F3"/>
<path fill-rule="evenodd" clip-rule="evenodd" d="M580.857 40.7816C580.159 41.0822 579.075 40.1104 578.437 38.6108C577.798 37.1112 577.847 35.6518 578.545 35.3512C579.244 35.0505 580.328 36.0223 580.966 37.5219C581.605 39.0215 581.556 40.4809 580.857 40.7816V40.7816Z" fill="#2196F3"/>
<path d="M582.222 42.4049C581.613 48.0746 583.318 56.3064 578.688 59.5195C576.35 61.1417 573.665 60.8177 571.191 61.8944" stroke="#2196F3" stroke-width="4" stroke-miterlimit="10" stroke-linejoin="round"/>
<path fill-rule="evenodd" clip-rule="evenodd" d="M517.071 42.3028C518.532 42.2199 519.621 39.5887 519.504 36.4257C519.387 33.2628 518.108 30.7659 516.647 30.8488C515.186 30.9317 514.097 33.563 514.214 36.7259C514.331 39.8888 515.61 42.3857 517.071 42.3028V42.3028Z" fill="#2196F3"/>
<path fill-rule="evenodd" clip-rule="evenodd" d="M518.584 38.8567C519.262 39.1932 520.401 38.2708 521.128 36.7966C521.856 35.3224 521.896 33.8545 521.219 33.518C520.542 33.1816 519.403 34.1039 518.676 35.5781C517.948 37.0523 517.907 38.5202 518.584 38.8567V38.8567Z" fill="#2196F3"/>
<path d="M517.11 40.3784C517.362 46.0765 515.142 54.1874 519.561 57.6845C521.792 59.4501 524.493 59.2948 526.895 60.5243" stroke="#2196F3" stroke-width="4" stroke-miterlimit="10" stroke-linejoin="round"/>
<path fill-rule="evenodd" clip-rule="evenodd" d="M547.969 95.3538L524.043 78.7816L526.146 15.7563C526.436 7.05434 537.619 0.36532 551.124 0.815965C564.628 1.26661 575.34 8.68627 575.05 17.3882L572.947 80.4135L547.969 95.3538Z" fill="#2196F3"/>
<path fill-rule="evenodd" clip-rule="evenodd" d="M574.847 78.2745L574.32 94.0452C574.03 102.755 562.019 109.423 547.494 108.938C532.969 108.454 521.429 101 521.72 92.2899L522.246 76.5192L574.847 78.2745Z" fill="#304FFE"/>
<path fill-rule="evenodd" clip-rule="evenodd" d="M530.69 46.3927C530.772 43.9452 532.822 42.0273 535.27 42.1089C536.445 42.1482 537.557 42.6527 538.36 43.5115C539.163 44.3704 539.593 45.5131 539.553 46.6885C539.472 49.136 537.421 51.0539 534.974 50.9723C532.526 50.8906 530.608 48.8403 530.69 46.3927V46.3927Z" fill="black"/>
<path fill-rule="evenodd" clip-rule="evenodd" d="M533.17 44.2374C533.193 43.5598 533.761 43.0288 534.438 43.0514C534.764 43.0623 535.072 43.202 535.294 43.4398C535.516 43.6775 535.635 43.9939 535.624 44.3193C535.602 44.997 535.034 45.5279 534.356 45.5053C533.679 45.4827 533.148 44.9151 533.17 44.2374V44.2374Z" fill="white"/>
<path fill-rule="evenodd" clip-rule="evenodd" d="M560.366 47.383C560.447 44.9354 562.498 43.0175 564.945 43.0992C566.121 43.1384 567.232 43.6429 568.036 44.5017C568.839 45.3606 569.268 46.5034 569.229 47.6787C569.147 50.1263 567.097 52.0442 564.65 51.9625C562.202 51.8808 560.284 49.8305 560.366 47.383V47.383Z" fill="black"/>
<path fill-rule="evenodd" clip-rule="evenodd" d="M562.846 45.2278C562.869 44.5502 563.437 44.0192 564.114 44.0418C564.44 44.0527 564.747 44.1923 564.97 44.4301C565.192 44.6679 565.311 44.9843 565.3 45.3097C565.278 45.9873 564.71 46.5183 564.032 46.4957C563.355 46.4731 562.824 45.9054 562.846 45.2278V45.2278Z" fill="white"/>
<path fill-rule="evenodd" clip-rule="evenodd" d="M544.552 57.3368L544.7 52.8826C544.783 50.4226 547.661 48.5222 551.129 48.6379C554.597 48.7536 557.343 50.8417 557.26 53.3017L557.112 57.7559L544.552 57.3368Z" stroke="black" stroke-width="2" stroke-miterlimit="10" stroke-linejoin="round"/>
<path d="M558.311 105.114L556.15 128.365L562.057 131.253" stroke="#304FFE" stroke-width="4"/>
<path d="M538.849 104.946L535.807 126.219L529.427 127.41" stroke="#304FFE" stroke-width="4"/>
<path fill-rule="evenodd" clip-rule="evenodd" d="M482.934 46.5629C481.472 46.3825 480.552 43.6842 480.88 40.5361C481.208 37.388 482.659 34.9823 484.121 35.1627C485.583 35.3431 486.503 38.0414 486.175 41.1895C485.847 44.3375 484.396 46.7433 482.934 46.5629V46.5629Z" fill="#2196F3"/>
<path fill-rule="evenodd" clip-rule="evenodd" d="M481.625 43.0043C480.926 43.305 479.842 42.3331 479.204 40.8336C478.565 39.334 478.614 37.8746 479.312 37.5739C480.011 37.2732 481.095 38.2451 481.733 39.7447C482.372 41.2442 482.323 42.7036 481.625 43.0043V43.0043Z" fill="#2196F3"/>
<path d="M482.988 44.6276C482.38 50.2974 484.085 58.5292 479.455 61.7423C477.117 63.3645 474.431 63.0405 471.957 64.1172" stroke="#2196F3" stroke-width="4" stroke-miterlimit="10" stroke-linejoin="round"/>
<path fill-rule="evenodd" clip-rule="evenodd" d="M417.838 44.5256C419.299 44.4427 420.388 41.8114 420.271 38.6485C420.153 35.4856 418.874 32.9887 417.413 33.0716C415.953 33.1545 414.863 35.7857 414.981 38.9487C415.098 42.1116 416.377 44.6085 417.838 44.5256V44.5256Z" fill="#2196F3"/>
<path fill-rule="evenodd" clip-rule="evenodd" d="M419.351 41.0795C420.028 41.4159 421.167 40.4936 421.895 39.0194C422.622 37.5452 422.663 36.0773 421.986 35.7408C421.309 35.4043 420.17 36.3267 419.442 37.8009C418.715 39.2751 418.674 40.743 419.351 41.0795V41.0795Z" fill="#2196F3"/>
<path d="M417.878 42.6012C418.129 48.2993 415.909 56.4102 420.328 59.9073C422.559 61.6729 425.26 61.5175 427.662 62.7471" stroke="#2196F3" stroke-width="4" stroke-miterlimit="10" stroke-linejoin="round"/>
<path fill-rule="evenodd" clip-rule="evenodd" d="M448.736 97.5766L424.81 81.0043L426.913 17.9791C427.204 9.27712 438.386 2.5881 451.891 3.03874C465.395 3.48939 476.107 10.909 475.817 19.611L473.714 82.6363L448.736 97.5766Z" fill="#2196F3"/>
<path fill-rule="evenodd" clip-rule="evenodd" d="M475.613 80.4972L475.087 96.268C474.796 104.978 462.786 111.646 448.26 111.161C433.735 110.676 422.196 103.223 422.486 94.5127L423.013 78.7419L475.613 80.4972Z" fill="#304FFE"/>
<path fill-rule="evenodd" clip-rule="evenodd" d="M431.457 48.6155C431.538 46.168 433.589 44.25 436.036 44.3317C437.212 44.3709 438.323 44.8755 439.126 45.7343C439.93 46.5931 440.359 47.7359 440.32 48.9113C440.238 51.3588 438.188 53.2767 435.74 53.195C433.293 53.1134 431.375 51.063 431.457 48.6155V48.6155Z" fill="black"/>
<path fill-rule="evenodd" clip-rule="evenodd" d="M433.937 46.4602C433.96 45.7826 434.527 45.2516 435.205 45.2742C435.53 45.2851 435.838 45.4248 436.061 45.6625C436.283 45.9003 436.402 46.2167 436.391 46.5421C436.368 47.2197 435.801 47.7507 435.123 47.7281C434.445 47.7055 433.914 47.1378 433.937 46.4602V46.4602Z" fill="white"/>
<path fill-rule="evenodd" clip-rule="evenodd" d="M461.132 49.6057C461.214 47.1582 463.264 45.2403 465.712 45.322C466.887 45.3612 467.999 45.8657 468.802 46.7245C469.606 47.5834 470.035 48.7261 469.996 49.9015C469.914 52.349 467.864 54.2669 465.416 54.1853C462.969 54.1036 461.051 52.0533 461.132 49.6057V49.6057Z" fill="black"/>
<path fill-rule="evenodd" clip-rule="evenodd" d="M463.613 47.4506C463.635 46.773 464.203 46.242 464.881 46.2646C465.206 46.2754 465.514 46.4151 465.736 46.6529C465.959 46.8907 466.078 47.2071 466.067 47.5325C466.044 48.2101 465.476 48.7411 464.799 48.7185C464.121 48.6959 463.59 48.1282 463.613 47.4506V47.4506Z" fill="white"/>
<path fill-rule="evenodd" clip-rule="evenodd" d="M445.318 59.5596L445.467 55.1053C445.549 52.6453 448.427 50.7449 451.896 50.8607C455.364 50.9764 458.109 53.0645 458.027 55.5245L457.878 59.9787L445.318 59.5596Z" stroke="black" stroke-width="2" stroke-miterlimit="10" stroke-linejoin="round"/>
<path d="M439.32 106.677L439.926 130.021L433.84 132.509" stroke="#304FFE" stroke-width="4"/>
<path d="M459.078 107.336L456.917 130.588L462.824 133.476" stroke="#304FFE" stroke-width="4"/>
<path fill-rule="evenodd" clip-rule="evenodd" d="M382.201 58.4646C380.733 58.3331 379.724 55.667 379.947 52.5097C380.169 49.3524 381.539 46.8996 383.007 47.0312C384.474 47.1627 385.483 49.8288 385.26 52.9861C385.038 56.1434 383.668 58.5962 382.201 58.4646V58.4646Z" fill="#2196F3"/>
<path fill-rule="evenodd" clip-rule="evenodd" d="M380.773 54.9517C380.085 55.2755 378.969 54.3403 378.281 52.8629C377.593 51.3855 377.593 49.9253 378.281 49.6014C378.969 49.2776 380.085 50.2128 380.773 51.6902C381.461 53.1677 381.461 54.6279 380.773 54.9517V54.9517Z" fill="#2196F3"/>
<path d="M382.19 56.5286C381.771 62.2155 383.75 70.3858 379.23 73.7515C376.947 75.4508 374.252 75.2166 371.815 76.3752" stroke="#2196F3" stroke-width="4" stroke-miterlimit="10" stroke-linejoin="round"/>
<path fill-rule="evenodd" clip-rule="evenodd" d="M317.073 58.5995C318.53 58.468 319.531 55.8018 319.308 52.6446C319.085 49.4873 317.724 47.0345 316.266 47.1661C314.809 47.2976 313.808 49.9637 314.031 53.121C314.254 56.2782 315.615 58.7311 317.073 58.5995V58.5995Z" fill="#2196F3"/>
<path fill-rule="evenodd" clip-rule="evenodd" d="M318.47 55.1048C319.158 55.4185 320.266 54.4587 320.944 52.961C321.622 51.4633 321.614 49.9949 320.925 49.6812C320.237 49.3675 319.13 50.3273 318.452 51.825C317.774 53.3227 317.782 54.7911 318.47 55.1048V55.1048Z" fill="#2196F3"/>
<path d="M317.048 56.6748C317.489 62.3613 315.541 70.5418 320.075 73.8896C322.363 75.5798 325.058 75.3344 327.499 76.4831" stroke="#2196F3" stroke-width="4" stroke-miterlimit="10" stroke-linejoin="round"/>
<path fill-rule="evenodd" clip-rule="evenodd" d="M349.723 110.59L325.257 94.8254V31.7651C325.257 23.0583 336.211 16 349.723 16C363.235 16 374.188 23.0583 374.188 31.7651V94.8254L349.723 110.59Z" fill="#2196F3"/>
<path fill-rule="evenodd" clip-rule="evenodd" d="M376.016 92.6243V108.404C376.016 117.119 364.234 124.183 349.701 124.183C335.167 124.183 323.386 117.119 323.386 108.404V92.6243H376.016Z" fill="#304FFE"/>
<path fill-rule="evenodd" clip-rule="evenodd" d="M330.82 62.233C330.82 59.784 332.806 57.7988 335.254 57.7988C336.43 57.7988 337.558 58.266 338.39 59.0975C339.221 59.9291 339.689 61.0569 339.689 62.233C339.689 64.6819 337.703 66.6671 335.254 66.6671C332.806 66.6671 330.82 64.6819 330.82 62.233V62.233Z" fill="black"/>
<path fill-rule="evenodd" clip-rule="evenodd" d="M333.228 59.9962C333.228 59.3182 333.777 58.7686 334.455 58.7686C334.781 58.7686 335.093 58.8979 335.323 59.1281C335.553 59.3583 335.683 59.6706 335.683 59.9962C335.683 60.6742 335.133 61.2238 334.455 61.2238C333.777 61.2238 333.228 60.6742 333.228 59.9962V59.9962Z" fill="white"/>
<path fill-rule="evenodd" clip-rule="evenodd" d="M360.513 62.233C360.513 59.784 362.498 57.7988 364.947 57.7988C366.123 57.7988 367.251 58.266 368.082 59.0975C368.914 59.9291 369.381 61.0569 369.381 62.233C369.381 64.6819 367.396 66.6671 364.947 66.6671C362.498 66.6671 360.513 64.6819 360.513 62.233V62.233Z" fill="black"/>
<path fill-rule="evenodd" clip-rule="evenodd" d="M362.92 59.9962C362.92 59.3182 363.47 58.7686 364.148 58.7686C364.473 58.7686 364.785 58.8979 365.016 59.1281C365.246 59.3583 365.375 59.6706 365.375 59.9962C365.375 60.6742 364.826 61.2238 364.148 61.2238C363.47 61.2238 362.92 60.6742 362.92 59.9962V59.9962Z" fill="white"/>
<path fill-rule="evenodd" clip-rule="evenodd" d="M345.04 72.7086V68.2519C345.04 65.7905 347.853 63.7952 351.323 63.7952C354.793 63.7952 357.606 65.7905 357.606 68.2519V72.7086H345.04Z" stroke="black" stroke-width="2" stroke-miterlimit="10" stroke-linejoin="round"/>
<path d="M340.615 118L339 130L342 141.31L336 144" stroke="#304FFE" stroke-width="4"/>
<path d="M360.385 118L362 130L359 141.31L365 144" stroke="#304FFE" stroke-width="4"/>
<path fill-rule="evenodd" clip-rule="evenodd" d="M281.949 72.7834C280.479 72.6827 279.414 70.0384 279.571 66.8771C279.727 63.7159 281.045 61.2348 282.515 61.3355C283.985 61.4362 285.049 64.0806 284.893 67.2418C284.737 70.403 283.419 72.8841 281.949 72.7834V72.7834Z" fill="#2196F3"/>
<path fill-rule="evenodd" clip-rule="evenodd" d="M280.448 69.3013C279.767 69.6395 278.632 68.7279 277.913 67.2653C277.194 65.8026 277.163 64.3427 277.844 64.0045C278.526 63.6663 279.661 64.5779 280.38 66.0405C281.099 67.5032 281.129 68.9631 280.448 69.3013V69.3013Z" fill="#2196F3"/>
<path d="M281.898 70.848C281.598 76.5425 283.748 84.6694 279.3 88.1293C277.053 89.8762 274.354 89.6987 271.942 90.9082" stroke="#2196F3" stroke-width="4" stroke-miterlimit="10" stroke-linejoin="round"/>
<path fill-rule="evenodd" clip-rule="evenodd" d="M216.839 74.2862C218.293 74.1241 219.237 71.4376 218.948 68.2857C218.659 65.1338 217.246 62.7101 215.792 62.8722C214.338 63.0344 213.394 65.7209 213.683 68.8728C213.971 72.0247 215.384 74.4484 216.839 74.2862V74.2862Z" fill="#2196F3"/>
<path fill-rule="evenodd" clip-rule="evenodd" d="M218.162 70.7629C218.857 71.0621 219.944 70.0793 220.59 68.5677C221.237 67.0561 221.198 65.5882 220.503 65.289C219.809 64.9898 218.722 65.9727 218.075 67.4842C217.429 68.9958 217.468 70.4637 218.162 70.7629V70.7629Z" fill="#2196F3"/>
<path d="M216.774 72.3624C217.334 78.0385 215.558 86.258 220.161 89.5098C222.485 91.1516 225.173 90.8497 227.638 91.9469" stroke="#2196F3" stroke-width="4" stroke-miterlimit="10" stroke-linejoin="round"/>
<path fill-rule="evenodd" clip-rule="evenodd" d="M250.573 125.58L225.782 110.332L224.458 47.2858C224.275 38.5809 235.078 31.2941 248.586 31.0103C262.095 30.7265 273.195 37.5531 273.378 46.258L274.702 109.304L250.573 125.58Z" fill="#2196F3"/>
<path fill-rule="evenodd" clip-rule="evenodd" d="M276.483 107.065L276.815 122.841C276.998 131.554 265.367 138.865 250.837 139.17C236.307 139.476 224.379 132.66 224.196 123.947L223.865 108.171L276.483 107.065Z" fill="#304FFE"/>
<path fill-rule="evenodd" clip-rule="evenodd" d="M230.66 77.6302C230.608 75.1818 232.551 73.1553 235 73.1039C236.175 73.0792 237.313 73.5226 238.162 74.3365C239.01 75.1504 239.501 76.2681 239.526 77.4439C239.577 79.8923 237.634 81.9187 235.186 81.9702C232.737 82.0216 230.711 80.0785 230.66 77.6302V77.6302Z" fill="black"/>
<path fill-rule="evenodd" clip-rule="evenodd" d="M233.019 75.3433C233.005 74.6655 233.543 74.1044 234.221 74.0902C234.547 74.0833 234.861 74.2061 235.096 74.4314C235.331 74.6568 235.467 74.9662 235.474 75.2918C235.488 75.9696 234.95 76.5307 234.273 76.5449C233.595 76.5591 233.034 76.0212 233.019 75.3433V75.3433Z" fill="white"/>
<path fill-rule="evenodd" clip-rule="evenodd" d="M260.345 77.0065C260.294 74.5581 262.237 72.5317 264.685 72.4802C265.861 72.4555 266.998 72.8989 267.847 73.7128C268.696 74.5267 269.187 75.6445 269.211 76.8202C269.263 79.2686 267.32 81.2951 264.871 81.3465C262.423 81.398 260.397 79.4549 260.345 77.0065V77.0065Z" fill="black"/>
<path fill-rule="evenodd" clip-rule="evenodd" d="M262.705 74.7197C262.691 74.0418 263.229 73.4808 263.907 73.4665C264.232 73.4597 264.547 73.5824 264.782 73.8078C265.017 74.0331 265.153 74.3426 265.16 74.6681C265.174 75.3459 264.636 75.907 263.958 75.9212C263.28 75.9355 262.719 75.3975 262.705 74.7197V74.7197Z" fill="white"/>
<path fill-rule="evenodd" clip-rule="evenodd" d="M245.095 87.8047L245.002 83.349C244.95 80.8882 247.721 78.8342 251.19 78.7613C254.66 78.6884 257.514 80.6242 257.566 83.0851L257.66 87.5408L245.095 87.8047Z" stroke="black" stroke-width="2" stroke-miterlimit="10" stroke-linejoin="round"/>
<path d="M240.615 131L236 143L242 154.31L236 157" stroke="#304FFE" stroke-width="4"/>
<path d="M260.385 131L265 143L259 154.31L265 157" stroke="#304FFE" stroke-width="4"/>
<path fill-rule="evenodd" clip-rule="evenodd" d="M182.201 71.4646C180.733 71.3331 179.724 68.667 179.947 65.5097C180.169 62.3524 181.539 59.8996 183.007 60.0312C184.474 60.1627 185.483 62.8288 185.26 65.9861C185.038 69.1434 183.668 71.5962 182.201 71.4646V71.4646Z" fill="#2196F3"/>
<path fill-rule="evenodd" clip-rule="evenodd" d="M180.773 67.9517C180.085 68.2755 178.969 67.3403 178.281 65.8629C177.593 64.3855 177.593 62.9253 178.281 62.6014C178.969 62.2776 180.085 63.2128 180.773 64.6902C181.461 66.1677 181.461 67.6279 180.773 67.9517V67.9517Z" fill="#2196F3"/>
<path d="M182.19 69.5286C181.771 75.2155 183.75 83.3858 179.23 86.7515C176.947 88.4508 174.252 88.2166 171.815 89.3752" stroke="#2196F3" stroke-width="4" stroke-miterlimit="10" stroke-linejoin="round"/>
<path fill-rule="evenodd" clip-rule="evenodd" d="M117.073 71.5995C118.53 71.468 119.531 68.8018 119.308 65.6446C119.085 62.4873 117.724 60.0345 116.266 60.1661C114.809 60.2976 113.808 62.9637 114.031 66.121C114.254 69.2782 115.615 71.7311 117.073 71.5995V71.5995Z" fill="#2196F3"/>
<path fill-rule="evenodd" clip-rule="evenodd" d="M118.47 68.1048C119.158 68.4185 120.266 67.4587 120.944 65.961C121.622 64.4633 121.614 62.9949 120.925 62.6812C120.237 62.3675 119.13 63.3273 118.452 64.825C117.774 66.3227 117.782 67.7911 118.47 68.1048V68.1048Z" fill="#2196F3"/>
<path d="M117.048 69.6748C117.489 75.3613 115.541 83.5418 120.075 86.8896C122.363 88.5798 125.058 88.3344 127.499 89.4831" stroke="#2196F3" stroke-width="4" stroke-miterlimit="10" stroke-linejoin="round"/>
<path fill-rule="evenodd" clip-rule="evenodd" d="M149.723 123.59L125.257 107.825V44.7651C125.257 36.0583 136.211 29 149.723 29C163.235 29 174.188 36.0583 174.188 44.7651V107.825L149.723 123.59Z" fill="#2196F3"/>
<path fill-rule="evenodd" clip-rule="evenodd" d="M176.016 105.624V121.404C176.016 130.119 164.234 137.183 149.701 137.183C135.167 137.183 123.386 130.119 123.386 121.404V105.624H176.016Z" fill="#304FFE"/>
<path fill-rule="evenodd" clip-rule="evenodd" d="M130.82 75.233C130.82 72.784 132.806 70.7988 135.254 70.7988C136.43 70.7988 137.558 71.266 138.39 72.0975C139.221 72.9291 139.689 74.0569 139.689 75.233C139.689 77.6819 137.703 79.6671 135.254 79.6671C132.806 79.6671 130.82 77.6819 130.82 75.233V75.233Z" fill="black"/>
<path fill-rule="evenodd" clip-rule="evenodd" d="M133.228 72.9962C133.228 72.3182 133.777 71.7686 134.455 71.7686C134.781 71.7686 135.093 71.8979 135.323 72.1281C135.553 72.3583 135.683 72.6706 135.683 72.9962C135.683 73.6742 135.133 74.2238 134.455 74.2238C133.777 74.2238 133.228 73.6742 133.228 72.9962V72.9962Z" fill="white"/>
<path fill-rule="evenodd" clip-rule="evenodd" d="M160.513 75.233C160.513 72.784 162.498 70.7988 164.947 70.7988C166.123 70.7988 167.251 71.266 168.082 72.0975C168.914 72.9291 169.381 74.0569 169.381 75.233C169.381 77.6819 167.396 79.6671 164.947 79.6671C162.498 79.6671 160.513 77.6819 160.513 75.233V75.233Z" fill="black"/>
<path fill-rule="evenodd" clip-rule="evenodd" d="M162.92 72.9962C162.92 72.3182 163.47 71.7686 164.148 71.7686C164.473 71.7686 164.785 71.8979 165.016 72.1281C165.246 72.3583 165.375 72.6706 165.375 72.9962C165.375 73.6742 164.826 74.2238 164.148 74.2238C163.47 74.2238 162.92 73.6742 162.92 72.9962V72.9962Z" fill="white"/>
<path fill-rule="evenodd" clip-rule="evenodd" d="M145.04 85.7086V81.2519C145.04 78.7905 147.853 76.7952 151.323 76.7952C154.793 76.7952 157.606 78.7905 157.606 81.2519V85.7086H145.04Z" stroke="black" stroke-width="2" stroke-miterlimit="10" stroke-linejoin="round"/>
<path d="M140.615 131L139 143L142 154.31L136 157" stroke="#304FFE" stroke-width="4"/>
<path d="M160.385 131L162 143L159 154.31L165 157" stroke="#304FFE" stroke-width="4"/>
<path fill-rule="evenodd" clip-rule="evenodd" d="M82.2005 69.4646C80.7332 69.3331 79.7242 66.667 79.9468 63.5097C80.1694 60.3524 81.5394 57.8996 83.0067 58.0312C84.474 58.1627 85.483 60.8288 85.2604 63.9861C85.0378 67.1434 83.6678 69.5962 82.2005 69.4646V69.4646Z" fill="#2196F3"/>
<path fill-rule="evenodd" clip-rule="evenodd" d="M80.7726 65.9517C80.0845 66.2755 78.9689 65.3403 78.2807 63.8629C77.5926 62.3855 77.5926 60.9253 78.2807 60.6014C78.9689 60.2776 80.0845 61.2128 80.7726 62.6902C81.4608 64.1677 81.4608 65.6279 80.7726 65.9517V65.9517Z" fill="#2196F3"/>
<path d="M82.1904 67.5286C81.7711 73.2155 83.7501 81.3858 79.2295 84.7515C76.9472 86.4508 74.2521 86.2166 71.8154 87.3752" stroke="#2196F3" stroke-width="4" stroke-miterlimit="10" stroke-linejoin="round"/>
<path fill-rule="evenodd" clip-rule="evenodd" d="M17.0726 69.5995C18.5298 69.468 19.5306 66.8018 19.308 63.6446C19.0853 60.4873 17.7236 58.0345 16.2664 58.1661C14.8092 58.2976 13.8084 60.9637 14.031 64.121C14.2536 67.2782 15.6154 69.7311 17.0726 69.5995V69.5995Z" fill="#2196F3"/>
<path fill-rule="evenodd" clip-rule="evenodd" d="M18.4702 66.1048C19.1584 66.4185 20.2658 65.4587 20.9438 63.961C21.6218 62.4633 21.6136 60.9949 20.9255 60.6812C20.2374 60.3675 19.1299 61.3273 18.4519 62.825C17.7739 64.3227 17.7821 65.7911 18.4702 66.1048V66.1048Z" fill="#2196F3"/>
<path d="M17.048 67.6748C17.489 73.3613 15.541 81.5418 20.0745 84.8896C22.3634 86.5798 25.0577 86.3344 27.4989 87.4831" stroke="#2196F3" stroke-width="4" stroke-miterlimit="10" stroke-linejoin="round"/>
<path fill-rule="evenodd" clip-rule="evenodd" d="M49.7227 121.59L25.2573 105.825V42.7651C25.2573 34.0583 36.2109 27 49.7227 27C63.2346 27 74.1882 34.0583 74.1882 42.7651V105.825L49.7227 121.59Z" fill="#2196F3"/>
<path fill-rule="evenodd" clip-rule="evenodd" d="M76.0157 103.624V119.404C76.0157 128.119 64.2341 135.183 49.7007 135.183C35.1674 135.183 23.3857 128.119 23.3857 119.404V103.624H76.0157Z" fill="#304FFE"/>
<path fill-rule="evenodd" clip-rule="evenodd" d="M30.8203 73.233C30.8203 70.784 32.8055 68.7988 35.2544 68.7988C36.4304 68.7988 37.5583 69.266 38.3898 70.0975C39.2214 70.9291 39.6886 72.0569 39.6886 73.233C39.6886 75.6819 37.7033 77.6671 35.2544 77.6671C32.8055 77.6671 30.8203 75.6819 30.8203 73.233V73.233Z" fill="black"/>
<path fill-rule="evenodd" clip-rule="evenodd" d="M33.2278 70.9962C33.2278 70.3182 33.7774 69.7686 34.4554 69.7686C34.781 69.7686 35.0933 69.8979 35.3235 70.1281C35.5537 70.3583 35.683 70.6706 35.683 70.9962C35.683 71.6742 35.1334 72.2238 34.4554 72.2238C33.7774 72.2238 33.2278 71.6742 33.2278 70.9962V70.9962Z" fill="white"/>
<path fill-rule="evenodd" clip-rule="evenodd" d="M60.5127 73.233C60.5127 70.784 62.4979 68.7988 64.9468 68.7988C66.1228 68.7988 67.2507 69.266 68.0822 70.0975C68.9138 70.9291 69.381 72.0569 69.381 73.233C69.381 75.6819 67.3957 77.6671 64.9468 77.6671C62.4979 77.6671 60.5127 75.6819 60.5127 73.233V73.233Z" fill="black"/>
<path fill-rule="evenodd" clip-rule="evenodd" d="M62.9199 70.9962C62.9199 70.3182 63.4696 69.7686 64.1476 69.7686C64.4731 69.7686 64.7854 69.8979 65.0156 70.1281C65.2458 70.3583 65.3752 70.6706 65.3752 70.9962C65.3752 71.6742 64.8256 72.2238 64.1476 72.2238C63.4696 72.2238 62.9199 71.6742 62.9199 70.9962V70.9962Z" fill="white"/>
<path fill-rule="evenodd" clip-rule="evenodd" d="M45.0396 83.7086V79.2519C45.0396 76.7905 47.8528 74.7952 51.323 74.7952C54.7933 74.7952 57.6065 76.7905 57.6065 79.2519V83.7086H45.0396Z" stroke="black" stroke-width="2" stroke-miterlimit="10" stroke-linejoin="round"/>
<path d="M40.6154 131L42 154.31L36 157" stroke="#304FFE" stroke-width="4"/>
<path d="M60.3846 131L59 154.31L65 157" stroke="#304FFE" stroke-width="4"/>
<defs>
<clipPath id="clip0">
<rect width="100" height="145" fill="white" transform="translate(600)"/>
</clipPath>
</defs>
</svg>
