<svg width="500" height="160" viewBox="0 0 500 160" fill="none" xmlns="http://www.w3.org/2000/svg">
<path fill-rule="evenodd" clip-rule="evenodd" d="M405.85 78.8285C407.703 79.3037 409.506 77.9093 409.878 75.7141C410.25 73.519 409.049 71.3542 407.196 70.8791C405.343 70.4039 403.54 71.7983 403.168 73.9935C402.797 76.1886 403.998 78.3534 405.85 78.8285V78.8285Z" fill="#2196F3"/>
<path fill-rule="evenodd" clip-rule="evenodd" d="M408.972 75.1597C409.578 75.6126 410.864 74.9104 411.845 73.5913C412.827 72.2721 413.131 70.8356 412.525 70.3827C411.92 69.9297 410.633 70.6319 409.652 71.9511C408.671 73.2702 408.367 74.7068 408.972 75.1597V75.1597Z" fill="#2196F3"/>
<path d="M406 75.5C406.441 81.1865 404.967 81.6522 409.5 85C411.789 86.6902 425.058 86.3344 427.499 87.4831" stroke="#2196F3" stroke-width="4" stroke-miterlimit="10" stroke-linejoin="round"/>
<path fill-rule="evenodd" clip-rule="evenodd" d="M449.723 121.59L425.257 105.825V42.7651C425.257 34.0583 436.211 27 449.723 27C463.235 27 474.188 34.0583 474.188 42.7651V105.825L449.723 121.59Z" fill="#2196F3"/>
<path fill-rule="evenodd" clip-rule="evenodd" d="M476.016 103.624V119.404C476.016 128.119 464.234 135.183 449.701 135.183C435.167 135.183 423.386 128.119 423.386 119.404V103.624H476.016Z" fill="#304FFE"/>
<path fill-rule="evenodd" clip-rule="evenodd" d="M430.82 73.233C430.82 70.784 432.806 68.7988 435.254 68.7988C436.43 68.7988 437.558 69.266 438.39 70.0975C439.221 70.9291 439.689 72.0569 439.689 73.233C439.689 75.6819 437.703 77.6671 435.254 77.6671C432.806 77.6671 430.82 75.6819 430.82 73.233V73.233Z" fill="black"/>
<path fill-rule="evenodd" clip-rule="evenodd" d="M433.228 70.9962C433.228 70.3182 433.777 69.7686 434.455 69.7686C434.781 69.7686 435.093 69.8979 435.323 70.1281C435.553 70.3583 435.683 70.6706 435.683 70.9962C435.683 71.6742 435.133 72.2238 434.455 72.2238C433.777 72.2238 433.228 71.6742 433.228 70.9962V70.9962Z" fill="white"/>
<path fill-rule="evenodd" clip-rule="evenodd" d="M460.513 73.233C460.513 70.784 462.498 68.7988 464.947 68.7988C466.123 68.7988 467.251 69.266 468.082 70.0975C468.914 70.9291 469.381 72.0569 469.381 73.233C469.381 75.6819 467.396 77.6671 464.947 77.6671C462.498 77.6671 460.513 75.6819 460.513 73.233V73.233Z" fill="black"/>
<path fill-rule="evenodd" clip-rule="evenodd" d="M462.92 70.9962C462.92 70.3182 463.47 69.7686 464.148 69.7686C464.473 69.7686 464.785 69.8979 465.016 70.1281C465.246 70.3583 465.375 70.6706 465.375 70.9962C465.375 71.6742 464.826 72.2238 464.148 72.2238C463.47 72.2238 462.92 71.6742 462.92 70.9962V70.9962Z" fill="white"/>
<path fill-rule="evenodd" clip-rule="evenodd" d="M456.567 77.9999L456.591 82.4566C456.604 84.9179 453.802 86.9284 450.332 86.9472C446.862 86.9659 444.038 84.9858 444.024 82.5245L444 78.0679L456.567 77.9999Z" stroke="black" stroke-width="2" stroke-miterlimit="10" stroke-linejoin="round"/>
<path d="M440.615 131L442 154.31L436 157" stroke="#304FFE" stroke-width="4"/>
<path d="M460.385 131L459 154.31L465 157" stroke="#304FFE" stroke-width="4"/>
<path fill-rule="evenodd" clip-rule="evenodd" d="M493.648 79.1373C491.795 79.6124 489.992 78.2181 489.621 76.0229C489.249 73.8277 490.45 71.6629 492.303 71.1878C494.155 70.7126 495.959 72.107 496.33 74.3022C496.702 76.4974 495.501 78.6621 493.648 79.1373V79.1373Z" fill="#2196F3"/>
<path fill-rule="evenodd" clip-rule="evenodd" d="M490.526 75.4684C489.92 75.9213 488.634 75.2191 487.653 73.9C486.672 72.5808 486.368 71.1443 486.973 70.6914C487.579 70.2385 488.865 70.9407 489.846 72.2598C490.827 73.5789 491.132 75.0155 490.526 75.4684V75.4684Z" fill="#2196F3"/>
<path d="M493.499 75.8087C493.058 81.4952 494.532 81.9609 489.999 85.3087C487.71 86.9989 474.441 86.6431 472 87.7919" stroke="#2196F3" stroke-width="4" stroke-miterlimit="10" stroke-linejoin="round"/>
<path fill-rule="evenodd" clip-rule="evenodd" d="M306.112 81.291C307.968 81.7568 309.764 80.3533 310.124 78.1563C310.485 75.9592 309.273 73.8006 307.418 73.3348C305.562 72.869 303.766 74.2725 303.406 76.4695C303.045 78.6665 304.257 80.8252 306.112 81.291V81.291Z" fill="#2196F3"/>
<path fill-rule="evenodd" clip-rule="evenodd" d="M309.216 77.6064C309.824 78.0563 311.107 77.3476 312.081 76.0235C313.056 74.6994 313.353 73.2613 312.745 72.8115C312.137 72.3616 310.854 73.0703 309.88 74.3944C308.906 75.7185 308.608 77.1566 309.216 77.6064V77.6064Z" fill="#2196F3"/>
<path d="M306.245 77.9617C306.715 83.6459 305.243 84.119 309.793 87.4439C312.091 89.1225 325.357 88.6996 327.804 89.836" stroke="#2196F3" stroke-width="4" stroke-miterlimit="10" stroke-linejoin="round"/>
<path fill-rule="evenodd" clip-rule="evenodd" d="M350.2 123.831L325.656 108.189L325.337 45.1299C325.293 36.4232 336.211 29.3096 349.722 29.2414C363.234 29.1731 374.223 36.1759 374.267 44.8826L374.586 107.942L350.2 123.831Z" fill="#2196F3"/>
<path fill-rule="evenodd" clip-rule="evenodd" d="M331.054 75.5693C331.041 73.1205 333.016 71.1252 335.465 71.1128C336.641 71.1069 337.771 71.5684 338.607 72.3957C339.443 73.2231 339.916 74.3485 339.922 75.5245C339.934 77.9734 337.959 79.9686 335.51 79.981C333.061 79.9934 331.066 78.0182 331.054 75.5693V75.5693Z" fill="black"/>
<path fill-rule="evenodd" clip-rule="evenodd" d="M333.45 73.3204C333.446 72.6424 333.993 72.09 334.671 72.0866C334.997 72.0849 335.309 72.2127 335.541 72.4417C335.772 72.6708 335.903 72.9824 335.905 73.308C335.908 73.986 335.361 74.5384 334.683 74.5418C334.005 74.5452 333.453 73.9984 333.45 73.3204V73.3204Z" fill="white"/>
<path fill-rule="evenodd" clip-rule="evenodd" d="M360.746 75.4193C360.733 72.9704 362.708 70.9752 365.157 70.9628C366.333 70.9569 367.463 71.4183 368.299 72.2457C369.135 73.073 369.608 74.1985 369.614 75.3745C369.626 77.8234 367.651 79.8186 365.202 79.831C362.753 79.8433 360.758 77.8682 360.746 75.4193V75.4193Z" fill="black"/>
<path fill-rule="evenodd" clip-rule="evenodd" d="M363.141 73.1704C363.138 72.4924 363.685 71.94 364.363 71.9365C364.688 71.9349 365.001 72.0627 365.233 72.2917C365.464 72.5208 365.595 72.8324 365.597 73.158C365.6 73.836 365.053 74.3883 364.375 74.3918C363.697 74.3952 363.145 73.8484 363.141 73.1704V73.1704Z" fill="white"/>
<path fill-rule="evenodd" clip-rule="evenodd" d="M356.824 80.2061L356.87 84.6626C356.896 87.1238 354.104 89.1484 350.634 89.1847C347.164 89.221 344.33 87.2552 344.304 84.794L344.258 80.3376L356.824 80.2061Z" stroke="black" stroke-width="2" stroke-miterlimit="10" stroke-linejoin="round"/>
<path fill-rule="evenodd" clip-rule="evenodd" d="M393.91 81.156C392.06 81.6406 390.25 80.2553 389.867 78.062C389.485 75.8688 390.674 73.698 392.525 73.2135C394.375 72.729 396.185 74.1142 396.568 76.3075C396.951 78.5007 395.761 80.6715 393.91 81.156V81.156Z" fill="#2196F3"/>
<path fill-rule="evenodd" clip-rule="evenodd" d="M390.77 77.503C390.167 77.9589 388.877 77.2632 387.889 75.9491C386.901 74.6349 386.59 73.1999 387.193 72.744C387.796 72.288 389.086 72.9837 390.074 74.2978C391.062 75.612 391.373 77.047 390.77 77.503V77.503Z" fill="#2196F3"/>
<path d="M393.745 77.8282C393.332 83.5169 394.809 83.9752 390.293 87.3458C388.012 89.0476 374.742 88.7588 372.307 89.9199" stroke="#2196F3" stroke-width="4" stroke-miterlimit="10" stroke-linejoin="round"/>
<path fill-rule="evenodd" clip-rule="evenodd" d="M376.016 105.624V121.404C376.016 130.119 364.234 137.183 349.701 137.183C335.167 137.183 323.386 130.119 323.386 121.404V105.624H376.016Z" fill="#304FFE"/>
<path d="M340.615 131L339 143L342 154.31L336 157" stroke="#304FFE" stroke-width="4"/>
<path d="M360.385 131L362 143L359 154.31L365 157" stroke="#304FFE" stroke-width="4"/>
<path fill-rule="evenodd" clip-rule="evenodd" d="M205.904 84.6828C207.766 85.1202 209.541 83.6894 209.868 81.4871C210.194 79.2848 208.95 77.1449 207.088 76.7076C205.226 76.2702 203.451 77.701 203.124 79.9033C202.798 82.1056 204.042 84.2454 205.904 84.6828V84.6828Z" fill="#2196F3"/>
<path fill-rule="evenodd" clip-rule="evenodd" d="M208.952 80.9512C209.566 81.3917 210.838 80.6635 211.792 79.3246C212.746 77.9858 213.021 76.5434 212.407 76.1029C211.792 75.6624 210.52 76.3906 209.566 77.7294C208.612 79.0683 208.337 80.5107 208.952 80.9512V80.9512Z" fill="#2196F3"/>
<path d="M205.986 81.3519C206.543 87.0283 205.078 87.5239 209.679 90.7787C212.002 92.422 225.26 91.7962 227.725 92.8951" stroke="#2196F3" stroke-width="4" stroke-miterlimit="10" stroke-linejoin="round"/>
<path fill-rule="evenodd" clip-rule="evenodd" d="M250.638 126.543L225.857 111.279L224.573 48.2319C224.396 39.5269 235.204 32.2472 248.713 31.9722C262.222 31.6973 273.317 38.5312 273.494 47.2362L274.777 110.283L250.638 126.543Z" fill="#2196F3"/>
<path fill-rule="evenodd" clip-rule="evenodd" d="M230.755 78.5803C230.705 76.1319 232.65 74.1067 235.098 74.0569C236.274 74.0329 237.411 74.477 238.259 75.2915C239.108 76.106 239.598 77.2241 239.622 78.3998C239.672 80.8482 237.727 82.8734 235.279 82.9233C232.83 82.9731 230.805 81.0287 230.755 78.5803V78.5803Z" fill="black"/>
<path fill-rule="evenodd" clip-rule="evenodd" d="M233.117 76.295C233.103 75.6171 233.641 75.0564 234.319 75.0426C234.645 75.036 234.96 75.159 235.194 75.3845C235.429 75.61 235.565 75.9195 235.572 76.245C235.585 76.9229 235.047 77.4836 234.369 77.4974C233.691 77.5112 233.131 76.9729 233.117 76.295V76.295Z" fill="white"/>
<path fill-rule="evenodd" clip-rule="evenodd" d="M260.441 77.9761C260.391 75.5277 262.336 73.5024 264.784 73.4526C265.96 73.4287 267.097 73.8728 267.945 74.6873C268.794 75.5017 269.284 76.6198 269.308 77.7956C269.358 80.244 267.413 82.2692 264.965 82.319C262.516 82.3689 260.491 80.4244 260.441 77.9761V77.9761Z" fill="black"/>
<path fill-rule="evenodd" clip-rule="evenodd" d="M262.803 75.6908C262.789 75.0129 263.327 74.4522 264.005 74.4384C264.331 74.4318 264.646 74.5547 264.88 74.7802C265.115 75.0057 265.251 75.3153 265.258 75.6408C265.271 76.3187 264.733 76.8794 264.055 76.8931C263.377 76.9069 262.817 76.3686 262.803 75.6908V75.6908Z" fill="white"/>
<path fill-rule="evenodd" clip-rule="evenodd" d="M256.594 82.8224L256.708 87.2776C256.772 89.7381 254.011 91.8052 250.542 91.8946C247.073 91.984 244.209 90.0618 244.146 87.6012L244.031 83.146L256.594 82.8224Z" stroke="black" stroke-width="2" stroke-miterlimit="10" stroke-linejoin="round"/>
<path fill-rule="evenodd" clip-rule="evenodd" d="M293.69 83.2048C291.848 83.7175 290.016 82.3601 289.6 80.173C289.184 77.9858 290.341 75.7971 292.183 75.2843C294.026 74.7715 295.857 76.1289 296.273 78.3161C296.69 80.5033 295.533 82.692 293.69 83.2048V83.2048Z" fill="#2196F3"/>
<path fill-rule="evenodd" clip-rule="evenodd" d="M290.494 79.6003C289.898 80.0654 288.598 79.3895 287.59 78.0906C286.582 76.7917 286.248 75.3617 286.845 74.8965C287.441 74.4314 288.741 75.1073 289.749 76.4062C290.757 77.7051 291.09 79.1351 290.494 79.6003V79.6003Z" fill="#2196F3"/>
<path d="M293.474 79.88C293.149 85.5743 294.632 86.0099 290.168 89.4493C287.914 91.1857 274.64 91.1 272.223 92.2982" stroke="#2196F3" stroke-width="4" stroke-miterlimit="10" stroke-linejoin="round"/>
<path fill-rule="evenodd" clip-rule="evenodd" d="M276.957 107.569L277.288 123.345C277.471 132.058 265.841 139.369 251.31 139.674C236.78 139.979 224.853 133.163 224.67 124.451L224.338 108.675L276.957 107.569Z" fill="#304FFE"/>
<path d="M241.089 131.504L236.474 143.504L242.474 154.814L236.474 157.504" stroke="#304FFE" stroke-width="4"/>
<path d="M260.858 131.504L265.474 143.504L259.474 154.814L265.474 157.504" stroke="#304FFE" stroke-width="4"/>
<path fill-rule="evenodd" clip-rule="evenodd" d="M105.85 81.8285C107.703 82.3037 109.506 80.9093 109.878 78.7141C110.25 76.519 109.049 74.3542 107.196 73.8791C105.343 73.4039 103.54 74.7983 103.168 76.9935C102.797 79.1886 103.998 81.3534 105.85 81.8285V81.8285Z" fill="#2196F3"/>
<path fill-rule="evenodd" clip-rule="evenodd" d="M108.973 78.1597C109.579 78.6126 110.865 77.9104 111.846 76.5913C112.827 75.2721 113.131 73.8356 112.526 73.3827C111.92 72.9297 110.634 73.6319 109.653 74.9511C108.672 76.2702 108.367 77.7068 108.973 78.1597V78.1597Z" fill="#2196F3"/>
<path d="M106 78.5C106.441 84.1865 104.967 84.6522 109.5 88C111.789 89.6902 125.058 89.3344 127.499 90.4831" stroke="#2196F3" stroke-width="4" stroke-miterlimit="10" stroke-linejoin="round"/>
<path fill-rule="evenodd" clip-rule="evenodd" d="M149.723 124.59L125.257 108.825V45.7651C125.257 37.0583 136.211 30 149.723 30C163.235 30 174.188 37.0583 174.188 45.7651V108.825L149.723 124.59Z" fill="#2196F3"/>
<path fill-rule="evenodd" clip-rule="evenodd" d="M130.82 76.233C130.82 73.784 132.806 71.7988 135.254 71.7988C136.43 71.7988 137.558 72.266 138.39 73.0975C139.221 73.9291 139.689 75.0569 139.689 76.233C139.689 78.6819 137.703 80.6671 135.254 80.6671C132.806 80.6671 130.82 78.6819 130.82 76.233V76.233Z" fill="black"/>
<path fill-rule="evenodd" clip-rule="evenodd" d="M133.228 73.9962C133.228 73.3182 133.777 72.7686 134.455 72.7686C134.781 72.7686 135.093 72.8979 135.323 73.1281C135.553 73.3583 135.683 73.6706 135.683 73.9962C135.683 74.6742 135.133 75.2238 134.455 75.2238C133.777 75.2238 133.228 74.6742 133.228 73.9962V73.9962Z" fill="white"/>
<path fill-rule="evenodd" clip-rule="evenodd" d="M160.513 76.233C160.513 73.784 162.498 71.7988 164.947 71.7988C166.123 71.7988 167.251 72.266 168.082 73.0975C168.914 73.9291 169.381 75.0569 169.381 76.233C169.381 78.6819 167.396 80.6671 164.947 80.6671C162.498 80.6671 160.513 78.6819 160.513 76.233V76.233Z" fill="black"/>
<path fill-rule="evenodd" clip-rule="evenodd" d="M162.92 73.9962C162.92 73.3182 163.47 72.7686 164.148 72.7686C164.473 72.7686 164.785 72.8979 165.016 73.1281C165.246 73.3583 165.375 73.6706 165.375 73.9962C165.375 74.6742 164.826 75.2238 164.148 75.2238C163.47 75.2238 162.92 74.6742 162.92 73.9962V73.9962Z" fill="white"/>
<path fill-rule="evenodd" clip-rule="evenodd" d="M156.567 80.9999L156.591 85.4566C156.604 87.9179 153.802 89.9284 150.332 89.9472C146.862 89.9659 144.038 87.9858 144.024 85.5245L144 81.0679L156.567 80.9999Z" stroke="black" stroke-width="2" stroke-miterlimit="10" stroke-linejoin="round"/>
<path fill-rule="evenodd" clip-rule="evenodd" d="M193.648 82.1373C191.795 82.6124 189.992 81.2181 189.621 79.0229C189.249 76.8277 190.45 74.6629 192.303 74.1878C194.155 73.7126 195.959 75.107 196.33 77.3022C196.702 79.4974 195.501 81.6621 193.648 82.1373V82.1373Z" fill="#2196F3"/>
<path fill-rule="evenodd" clip-rule="evenodd" d="M190.526 78.4684C189.92 78.9213 188.634 78.2191 187.653 76.9C186.672 75.5808 186.368 74.1443 186.973 73.6914C187.579 73.2385 188.865 73.9407 189.846 75.2598C190.827 76.5789 191.132 78.0155 190.526 78.4684V78.4684Z" fill="#2196F3"/>
<path d="M193.499 78.8087C193.058 84.4952 194.532 84.9609 189.999 88.3087C187.71 89.9989 174.441 89.6431 172 90.7919" stroke="#2196F3" stroke-width="4" stroke-miterlimit="10" stroke-linejoin="round"/>
<path fill-rule="evenodd" clip-rule="evenodd" d="M176.016 105.624V121.404C176.016 130.119 164.234 137.183 149.701 137.183C135.167 137.183 123.386 130.119 123.386 121.404V105.624H176.016Z" fill="#304FFE"/>
<path d="M140.615 131L139 143L142 154.31L136 157" stroke="#304FFE" stroke-width="4"/>
<path d="M160.385 131L162 143L159 154.31L165 157" stroke="#304FFE" stroke-width="4"/>
<path fill-rule="evenodd" clip-rule="evenodd" d="M5.85073 78.8285C7.70354 79.3037 9.50673 77.9093 9.87826 75.7141C10.2498 73.519 9.04896 71.3542 7.19614 70.8791C5.34334 70.4039 3.54015 71.7983 3.16862 73.9935C2.7971 76.1886 3.99792 78.3534 5.85073 78.8285V78.8285Z" fill="#2196F3"/>
<path fill-rule="evenodd" clip-rule="evenodd" d="M8.97268 75.1597C9.57831 75.6126 10.8646 74.9104 11.8457 73.5913C12.8268 72.2721 13.1312 70.8356 12.5256 70.3827C11.92 69.9297 10.6337 70.6319 9.65257 71.9511C8.67145 73.2702 8.36706 74.7068 8.97268 75.1597V75.1597Z" fill="#2196F3"/>
<path d="M6 75.5C6.44094 81.1865 4.9666 81.6522 9.50012 85C11.789 86.6902 25.0576 86.3344 27.4988 87.4831" stroke="#2196F3" stroke-width="4" stroke-miterlimit="10" stroke-linejoin="round"/>
<path fill-rule="evenodd" clip-rule="evenodd" d="M49.7227 121.59L25.2573 105.825V42.7651C25.2573 34.0583 36.2109 27 49.7227 27C63.2346 27 74.1882 34.0583 74.1882 42.7651V105.825L49.7227 121.59Z" fill="#2196F3"/>
<path fill-rule="evenodd" clip-rule="evenodd" d="M76.0157 103.624V119.404C76.0157 128.119 64.2341 135.183 49.7007 135.183C35.1674 135.183 23.3857 128.119 23.3857 119.404V103.624H76.0157Z" fill="#304FFE"/>
<path fill-rule="evenodd" clip-rule="evenodd" d="M30.8203 73.233C30.8203 70.784 32.8055 68.7988 35.2544 68.7988C36.4304 68.7988 37.5583 69.266 38.3898 70.0975C39.2214 70.9291 39.6886 72.0569 39.6886 73.233C39.6886 75.6819 37.7033 77.6671 35.2544 77.6671C32.8055 77.6671 30.8203 75.6819 30.8203 73.233V73.233Z" fill="black"/>
<path fill-rule="evenodd" clip-rule="evenodd" d="M33.2278 70.9962C33.2278 70.3182 33.7774 69.7686 34.4554 69.7686C34.781 69.7686 35.0933 69.8979 35.3235 70.1281C35.5537 70.3583 35.683 70.6706 35.683 70.9962C35.683 71.6742 35.1334 72.2238 34.4554 72.2238C33.7774 72.2238 33.2278 71.6742 33.2278 70.9962V70.9962Z" fill="white"/>
<path fill-rule="evenodd" clip-rule="evenodd" d="M60.5125 73.233C60.5125 70.784 62.4977 68.7988 64.9466 68.7988C66.1226 68.7988 67.2504 69.266 68.082 70.0975C68.9135 70.9291 69.3807 72.0569 69.3807 73.233C69.3807 75.6819 67.3955 77.6671 64.9466 77.6671C62.4977 77.6671 60.5125 75.6819 60.5125 73.233V73.233Z" fill="black"/>
<path fill-rule="evenodd" clip-rule="evenodd" d="M62.9199 70.9962C62.9199 70.3182 63.4696 69.7686 64.1476 69.7686C64.4731 69.7686 64.7854 69.8979 65.0156 70.1281C65.2458 70.3583 65.3752 70.6706 65.3752 70.9962C65.3752 71.6742 64.8256 72.2238 64.1476 72.2238C63.4696 72.2238 62.9199 71.6742 62.9199 70.9962V70.9962Z" fill="white"/>
<path fill-rule="evenodd" clip-rule="evenodd" d="M56.5668 77.9999L56.5909 82.4566C56.6042 84.9179 53.8018 86.9284 50.3316 86.9472C46.8614 86.9659 44.0375 84.9858 44.0242 82.5245L44.0001 78.0679L56.5668 77.9999Z" stroke="black" stroke-width="2" stroke-miterlimit="10" stroke-linejoin="round"/>
<path d="M40.6154 131L42 154.31L36 157" stroke="#304FFE" stroke-width="4"/>
<path d="M60.3846 131L59 154.31L65 157" stroke="#304FFE" stroke-width="4"/>
<path fill-rule="evenodd" clip-rule="evenodd" d="M93.6481 79.1373C91.7952 79.6124 89.9921 78.2181 89.6205 76.0229C89.249 73.8277 90.4498 71.6629 92.3026 71.1878C94.1554 70.7126 95.9586 72.107 96.3302 74.3022C96.7017 76.4974 95.5009 78.6621 93.6481 79.1373V79.1373Z" fill="#2196F3"/>
<path fill-rule="evenodd" clip-rule="evenodd" d="M90.5261 75.4684C89.9205 75.9213 88.6342 75.2191 87.6531 73.9C86.6719 72.5808 86.3675 71.1443 86.9732 70.6914C87.5788 70.2385 88.8651 70.9407 89.8462 72.2598C90.8273 73.5789 91.1317 75.0155 90.5261 75.4684V75.4684Z" fill="#2196F3"/>
<path d="M93.499 75.8087C93.0581 81.4952 94.5324 81.9609 89.9989 85.3087C87.71 86.9989 74.4414 86.6431 72.0003 87.7919" stroke="#2196F3" stroke-width="4" stroke-miterlimit="10" stroke-linejoin="round"/>
</svg>
